<?xml version="1.0" standalone="no"?>
<!DOCTYPE svg PUBLIC "-//W3C//DTD SVG 20010904//EN"
 "http://www.w3.org/TR/2001/REC-SVG-20010904/DTD/svg10.dtd">
<svg version="1.0" xmlns="http://www.w3.org/2000/svg"
 width="52.000000pt" height="35.000000pt" viewBox="0 0 52.000000 35.000000"
 preserveAspectRatio="xMidYMid meet">

<g transform="translate(0.000000,35.000000) scale(0.100000,-0.100000)"
fill="#000000" stroke="none">
<path d="M210 279 l0 -60 -22 15 c-32 22 -94 20 -129 -4 -56 -41 -56 -139 0
-180 35 -24 97 -26 129 -4 20 14 22 14 22 0 0 -9 7 -16 15 -16 13 0 15 24 15
155 0 131 -2 155 -15 155 -12 0 -15 -13 -15 -61z m-22 -85 c27 -31 28 -73 2
-107 -26 -33 -63 -41 -101 -22 -59 31 -62 111 -6 146 39 24 73 18 105 -17z"/>
<path d="M280 140 c0 -88 3 -110 14 -110 8 0 16 6 19 13 3 9 7 9 20 -2 27 -21
92 -19 124 5 40 30 57 85 39 128 -28 68 -94 93 -156 61 -27 -14 -30 -14 -30 0
0 8 -7 15 -15 15 -12 0 -15 -19 -15 -110z m161 67 c21 -16 39 -51 39 -77 0
-30 -53 -80 -83 -80 -41 0 -87 46 -87 86 0 65 81 109 131 71z"/>
</g>
</svg>
