<svg width="117" height="44" viewBox="0 0 117 44" fill="none" xmlns="http://www.w3.org/2000/svg">
<path d="M23.8447 22.3123C23.8447 20.706 24.8138 19.587 26.2948 19.587C27.7758 19.587 28.7448 20.706 28.7448 22.3123C28.7448 23.9007 27.7758 25.0376 26.2948 25.0376C24.8138 25.0376 23.8447 23.9007 23.8447 22.3123Z" fill="#152C4F"/>
<path d="M36.3697 19.5149C34.9619 19.5149 34.0111 20.5977 34.0111 22.0777C34.0111 23.5758 34.9801 24.6947 36.3697 24.6947C37.9055 24.6947 38.9294 23.5577 38.9294 22.0777C38.9294 20.6158 37.9055 19.5149 36.3697 19.5149Z" fill="#152C4F"/>
<path d="M44.5311 22.3123C44.5311 20.706 45.5001 19.587 46.9811 19.587C48.4621 19.587 49.4311 20.706 49.4311 22.3123C49.4311 23.9007 48.4621 25.0376 46.9811 25.0376C45.5001 25.0376 44.5311 23.9007 44.5311 22.3123Z" fill="#152C4F"/>
<path d="M59.4308 22.3304C59.4308 20.7241 60.4181 19.6051 61.9722 19.6051C63.5263 19.6051 64.4587 20.7422 64.4587 22.3304C64.4587 23.9186 63.5263 25.0376 61.9722 25.0376C60.4181 25.0376 59.4308 23.9367 59.4308 22.3304Z" fill="#152C4F"/>
<path fill-rule="evenodd" clip-rule="evenodd" d="M58.5 41.1943C89.5658 41.1943 114.75 32.4712 114.75 21.7105C114.75 10.9499 89.5658 2.22675 58.5 2.22675C27.434 2.22675 2.25 10.9499 2.25 21.7105C2.25 32.4712 27.434 41.1943 58.5 41.1943ZM20.2306 26.7884V13.3603H18V26.7884H20.2306ZM21.5959 22.3123C21.5959 25.0557 23.4608 27.005 26.2948 27.005C29.1288 27.005 30.9937 25.0557 30.9937 22.3123C30.9937 19.569 29.1288 17.6198 26.2948 17.6198C23.4608 17.6198 21.5959 19.569 21.5959 22.3123ZM35.9858 26.6079C33.4443 26.6079 31.7439 24.7309 31.7439 22.1319C31.7439 19.5149 33.4809 17.5836 36.0588 17.5836C37.3936 17.5836 38.5272 18.1432 39.0757 19.0817L39.2037 17.8724H41.1783V26.3372C41.1783 29.2791 39.3134 31.1741 36.388 31.1741C33.9014 31.1741 32.0913 29.6581 31.7988 27.3298H34.0477C34.1756 28.503 35.1264 29.1708 36.5159 29.1708C38.0701 29.1708 39.0026 28.1961 39.0026 26.7342V25.2182C38.4357 26.0844 37.3022 26.6079 35.9858 26.6079ZM42.2822 22.3123C42.2822 25.0557 44.1471 27.005 46.9811 27.005C49.8151 27.005 51.68 25.0557 51.68 22.3123C51.68 19.569 49.8151 17.6198 46.9811 17.6198C44.1471 17.6198 42.2822 19.569 42.2822 22.3123ZM55.4287 14.7321C55.4287 15.472 54.8254 16.0496 54.094 16.0496C53.3444 16.0496 52.7776 15.472 52.7776 14.7321C52.7776 14.0101 53.3444 13.4325 54.094 13.4325C54.8254 13.4325 55.4287 14.0101 55.4287 14.7321ZM55.2093 17.8724V26.7884H52.9788V17.8724H55.2093ZM57.1635 30.9214H59.3394V25.5611C59.9061 26.4815 61.1311 27.023 62.4842 27.023C65.1536 27.023 66.7442 25.0016 66.7076 22.2221C66.6528 19.4246 65.0255 17.6017 62.4658 17.6017C61.0946 17.6017 59.8513 18.1973 59.3028 19.2261L59.1748 17.8724H57.1635V30.9214ZM70.8942 27.023C68.7367 27.023 67.3471 25.8859 67.2741 24.1172H69.3035C69.3035 24.8933 69.8703 25.3445 70.8576 25.3445C71.6804 25.3445 72.3569 25.0196 72.3569 24.3157C72.3569 23.8103 71.9912 23.5396 71.4061 23.3772L69.8338 22.9801C68.0968 22.5289 67.4203 21.5724 67.4203 20.4172C67.4203 18.7207 68.8647 17.6017 70.8028 17.6017C72.7591 17.6017 74.0938 18.7207 74.167 20.4895H72.1375C72.1375 19.7134 71.5889 19.2441 70.7479 19.2441C69.9435 19.2441 69.4498 19.6773 69.4498 20.291C69.4498 20.8685 69.9069 21.1031 70.5834 21.2836L72.1741 21.6626C73.6551 22.0236 74.4595 22.8899 74.4595 24.1714C74.4595 25.904 73.0151 27.023 70.8942 27.023ZM79.0865 27.023C80.3111 27.023 81.4811 26.4635 82.0115 25.6332L82.1582 26.7884H84.2423V17.8724H82.0115V22.547C82.0115 24.1533 81.3899 25.0557 79.9274 25.0557C78.794 25.0557 78.0078 24.5143 78.0078 22.6734V17.8724H75.7769V23.4494C75.7769 25.5791 76.9471 27.023 79.0865 27.023ZM88.4419 21.6626V26.7884H86.2111V17.8724H88.2586L88.3685 18.8832C88.8989 18.089 89.8498 17.6017 90.9098 17.6017C92.4089 17.6017 93.3964 18.2514 93.8902 19.2983C94.3293 18.2514 95.408 17.6017 96.7793 17.6017C98.9734 17.6017 100.125 18.9012 100.125 20.9587V26.7884H97.9672V21.4641C97.9672 20.2007 97.273 19.5329 96.1943 19.5329C95.1335 19.5329 94.2926 20.2188 94.2926 21.6807V26.7884H92.1164V21.4641C92.1164 20.2007 91.4222 19.5329 90.3614 19.5329C89.3014 19.5329 88.4419 20.2188 88.4419 21.6626Z" fill="#152C4F"/>
</svg>
