<svg width="35" height="35" viewBox="0 0 35 35" fill="none" xmlns="http://www.w3.org/2000/svg">
<g clip-path="url(#clip0_2018_103)">
<path d="M35 17.5C35 7.8351 27.1649 0 17.5 0C7.8351 0 0 7.8351 0 17.5C0 25.7068 5.6504 32.5934 13.2727 34.4848V22.848H9.6642V17.5H13.2727V15.1956C13.2727 9.2393 15.9684 6.4785 21.8162 6.4785C22.925 6.4785 24.8381 6.6962 25.6207 6.9132V11.7607C25.2077 11.7173 24.4902 11.6956 23.5991 11.6956C20.7298 11.6956 19.621 12.7827 19.621 15.6086V17.5H25.3372L24.3551 22.848H19.621V34.8719C28.2863 33.8254 35.0007 26.4474 35.0007 17.5H35Z" fill="#0866FF"/>
<path d="M24.3544 22.848L25.3365 17.5H19.6203V15.6086C19.6203 12.7827 20.7291 11.6956 23.5984 11.6956C24.4895 11.6956 25.207 11.7173 25.62 11.7607V6.91322C24.8374 6.69552 22.9243 6.47852 21.8155 6.47852C15.9677 6.47852 13.272 9.23932 13.272 15.1956V17.5H9.66351V22.848H13.272V34.4848C14.6258 34.8208 16.0419 35 17.4993 35C18.2168 35 18.9245 34.9559 19.6196 34.8719V22.848H24.3537H24.3544Z" fill="white"/>
</g>
<defs>
<clipPath id="clip0_2018_103">
<rect width="35" height="35" fill="white"/>
</clipPath>
</defs>
</svg>
