<svg width="35" height="35" viewBox="0 0 35 35" fill="none" xmlns="http://www.w3.org/2000/svg">
<path d="M25.0491 12.6342C27.2998 14.2488 30.057 15.1988 33.035 15.1988V9.44793C32.4714 9.44805 31.9093 9.38907 31.3579 9.27184V13.7986C28.3802 13.7986 25.6233 12.8486 23.372 11.2341V22.97C23.372 28.8409 18.6296 33.5998 12.7799 33.5998C10.5973 33.5998 8.56859 32.9376 6.88336 31.8019C8.80677 33.7756 11.4891 34.9999 14.4567 34.9999C20.3067 34.9999 25.0493 30.241 25.0493 24.3698V12.6342H25.0491ZM27.118 6.83224C25.9677 5.57112 25.2125 3.94136 25.0491 2.13959V1.3999H23.4598C23.8598 3.68995 25.2243 5.64644 27.118 6.83224ZM10.5833 27.2968C9.94063 26.4511 9.59334 25.4167 9.5949 24.353C9.5949 21.6679 11.764 19.4908 14.4402 19.4908C14.9389 19.4906 15.4346 19.5673 15.9099 19.7186V13.8392C15.3545 13.7628 14.7939 13.7304 14.2336 13.7423V18.3185C13.7579 18.1672 13.2619 18.0903 12.7631 18.0908C10.0869 18.0908 7.91792 20.2677 7.91792 22.9532C7.91792 24.852 9.00213 26.4959 10.5833 27.2968Z" fill="#FF004F"/>
<path d="M23.3719 11.234C25.6232 12.8485 28.3801 13.7985 31.3578 13.7985V9.27172C29.6957 8.91641 28.2242 8.04471 27.1179 6.83224C25.2242 5.64632 23.8598 3.68983 23.4597 1.3999H19.2851V24.3696C19.2757 27.0474 17.1102 29.2156 14.4399 29.2156C12.8662 29.2156 11.4683 28.4629 10.5829 27.2968C9.00184 26.4959 7.91763 24.8519 7.91763 22.9533C7.91763 20.268 10.0866 18.0909 12.7628 18.0909C13.2755 18.0909 13.7697 18.171 14.2333 18.3187V13.7424C8.48635 13.8616 3.86444 18.574 3.86444 24.3697C3.86444 27.2629 5.0154 29.8857 6.88343 31.802C8.56866 32.9376 10.5973 33.6 12.78 33.6C18.6298 33.6 23.372 28.8408 23.372 22.97V11.234H23.3719Z" fill="black"/>
<path d="M31.3579 9.27179V8.04779C29.859 8.05007 28.3896 7.62882 27.1179 6.8322C28.2437 8.06905 29.726 8.92189 31.3579 9.27179ZM23.4598 1.39998C23.4216 1.18112 23.3923 0.960824 23.372 0.739687V0H17.6079V22.9699C17.5987 25.6474 15.4334 27.8156 12.7628 27.8156C11.9787 27.8156 11.2385 27.6288 10.5829 27.2969C11.4683 28.4629 12.8663 29.2156 14.4399 29.2156C17.11 29.2156 19.2758 27.0476 19.2852 24.3698V1.39998H23.4598ZM14.2335 13.7425V12.4394C13.7519 12.3734 13.2663 12.3402 12.7801 12.3404C6.92988 12.3403 2.1875 17.0995 2.1875 22.9699C2.1875 26.6504 4.05134 29.8939 6.88358 31.8019C5.01556 29.8856 3.86459 27.2627 3.86459 24.3697C3.86459 18.5741 8.48638 13.8616 14.2335 13.7425Z" fill="#00F2EA"/>
</svg>
